HIERARCHY
ROOT Hips
{
  OFFSET 128.474 59.0999 382.392
  CHANNELS 6 Xposition Yposition Zposition Zrotation Xrotation Yrotation
  JOINT RightUpLeg
  {
    OFFSET -8.9458 -8.66707 0.101652
    CHANNELS 3 Zrotation Xrotation Yrotation
    JOINT RightLeg
    {
      OFFSET 0 -44.4227 1.3727
      CHANNELS 3 Zrotation Xrotation Yrotation
      JOINT RightFoot
      {
        OFFSET 0.253549 -42.0924 -1.46059
        CHANNELS 3 Zrotation Xrotation Yrotation
        JOINT RightToes
        {
          OFFSET 0.04 -4.41509 8.4991
          CHANNELS 3 Zrotation Xrotation Yrotation
          End Site
          {
            OFFSET -0.08 -0.137448 9.77979
          }
        }
      }
    }
  }
  JOINT Spine
  {
    OFFSET 0 11.8905 0
    CHANNELS 3 Zrotation Xrotation Yrotation
    JOINT Spine1
    {
      OFFSET 0 25.6574 0.127663
      CHANNELS 3 Zrotation Xrotation Yrotation
      JOINT HEad
      {
        OFFSET 0 8.73416 0.011341
        CHANNELS 3 Zrotation Xrotation Yrotation
        End Site
        {
          OFFSET -0.29 12.7742 2.51395
        }
      }
      JOINT LeftShoulder1
      {
        OFFSET 8.99 -0.362252 -0.22
        CHANNELS 3 Zrotation Xrotation Yrotation
        JOINT LeftArm
        {
          OFFSET 10.2827 -0.00338 0.322123
          CHANNELS 3 Zrotation Xrotation Yrotation
          JOINT LeftForeArm
          {
            OFFSET 32.7669 0.099144 -1.42434
            CHANNELS 3 Zrotation Xrotation Yrotation
            JOINT LeftHand
            {
              OFFSET 27.5643 0.085362 1.02216
              CHANNELS 3 Zrotation Xrotation Yrotation
              End Site
              {
                OFFSET 16.7443 -0.6 1.50291
              }
            }
          }
        }
      }
      JOINT RightShoulder
      {
        OFFSET -8.99 -0.362252 -0.22
        CHANNELS 3 Zrotation Xrotation Yrotation
        JOINT RightArm
        {
          OFFSET -10.2827 -0.00338 0.322123
          CHANNELS 3 Zrotation Xrotation Yrotation
          JOINT RightForeArm
          {
            OFFSET -32.8971 0.099144 -1.42434
            CHANNELS 3 Zrotation Xrotation Yrotation
            JOINT RightHand
            {
              OFFSET -27.4921 0.085362 1.02216
              CHANNELS 3 Zrotation Xrotation Yrotation
              End Site
              {
                OFFSET -16.6312 -0.6 1.50291
              }
            }
          }
        }
      }
    }
  }
  JOINT LeftUpLeg
  {
    OFFSET 8.9458 -8.66707 0.101652
    CHANNELS 3 Zrotation Xrotation Yrotation
    JOINT LeftLeg
    {
      OFFSET 0 -44.4227 1.3727
      CHANNELS 3 Zrotation Xrotation Yrotation
      JOINT LeftFoot
      {
        OFFSET -0.253549 -42.0924 -1.46059
        CHANNELS 3 Zrotation Xrotation Yrotation
        JOINT LeftToes
        {
          OFFSET -0.04 -4.41509 8.4991
          CHANNELS 3 Zrotation Xrotation Yrotation
          End Site
          {
            OFFSET 0.08 -0.047448 9.77979
          }
        }
      }
    }
  }
}
MOTION
Frames:	18
Frame Time:	0.0166667
0	103.992	0	0.579335	2.57359	162.223	1.04154	-1.3095	-17.0439	-0.133874	13.2726	-2.37359	2.17358	-9.3378	-16.8613	4.62E-02	5.34E-04	0.662642	-0.315977	-2.74744	-0.71844	-0.667625	-5.48787	-1.45479	0.965669	18.4826	14.2999	7.95E-16	3.18E-15	3.18E-15	-7.42442	-12.7353	-7.04432	0.0170748	11.0414	-11.7809	3.26585	11.8023	5.08565	7.95E-16	3.18E-15	3.18E-15	7.0822	-9.11468	3.80947	0.0457943	16.8972	-4.48876	3.52357	12.7265	-2.28385	-5.22E+00	2.40E+00	-16.1567	7.06345	12.0114	-31.2511	-4.01049	-15.4487	-8.5264	1.59E-14	3.36E-14	9.54E-15
-0.014	103.99	-0.005	0.577948	2.56766	162.189	1.03504	-1.32501	-17.0424	-0.137564	13.2783	-2.33767	2.17146	-9.33292	-16.8318	4.62E-02	5.34E-04	6.63E-01	-0.318445	-2.74437	-0.713515	-0.67229	-5.48174	-1.44501	1.00681	18.4815	14.2902	7.95E-16	0.00E+00	6.36E-15	-7.47161	-12.8109	-7.03396	-0.0682471	11.1417	-11.6705	3.12765	11.8106	5.10913	7.95E-16	0.00E+00	6.36E-15	7.08071	-9.07459	3.80707	0.085576	16.7825	-4.5047	3.53426	12.6834	-2.26447	-5.23E+00	2.38668	-1.62E+01	7.05815	12.0256	-31.2169	-4.0207	-15.4263	-8.56778	1.51E-14	3.52E-14	6.36E-15
-0.024	103.989	-0.009	0.570277	2.54833	162.16	1.02236	-1.34167	-17.022	-0.138684	13.2726	-2.32565	2.1726	-9.33253	-16.8116	4.62E-02	5.34E-04	6.63E-01	-0.319421	-2.74525	-0.710161	-0.679177	-5.48282	-1.43847	1.05381	18.4817	14.2587	7.95E-16	0.00E+00	-3.18E-15	-7.52971	-12.8845	-7.0445	-0.125182	11.2573	-11.5109	2.94236	11.8396	5.14179	7.95E-16	0.00E+00	-3.18E-15	7.09046	-9.07964	3.803	0.11718	16.6736	-4.51741	3.59797	12.6691	-2.26251	-5.24E+00	2.36231	-16.1673	7.04886	12.0347	-31.1837	-4.01772	-15.4289	-8.49587	1.59E-14	3.26E-14	3.18E-15
-0.032	103.988	-0.015	0.560733	2.52029	162.137	1.01832	-1.36297	-17.0016	-0.139854	13.2577	-2.32074	2.1751	-9.32583	-16.7198	4.62E-02	5.34E-04	6.63E-01	-0.319928	-2.74781	-0.708562	-0.680415	-5.48855	-1.43869	1.09033	18.4895	14.2502	1.19E-15	3.18E-15	3.18E-15	-7.59213	-12.9639	-7.02244	-0.143782	11.3522	-11.3693	2.79536	11.843	5.18973	1.19E-15	3.18E-15	3.18E-15	7.13047	-9.12399	3.81349	0.128139	16.6854	-4.52174	3.69461	12.7014	-2.2958	-5.25E+00	2.34E+00	-1.62E+01	7.04253	12.0298	-31.1587	-4.02011	-15.4282	-8.50995	1.67E-14	2.78E-14	1.27E-14
-0.05	103.988	-0.048	0.556772	2.49231	162.115	1.02828	-1.38914	-16.9876	-0.143644	13.2353	-2.31221	2.1735	-9.33821	-17.0147	4.62E-02	5.34E-04	6.63E-01	-0.319957	-2.75148	-0.707034	-0.679176	-5.49587	-1.44154	1.09159	18.4991	14.2491	3.98E-16	1.59E-15	0.00E+00	-7.66119	-13.048	-6.98799	-0.148864	11.4164	-11.2461	2.74118	11.8237	5.23869	3.98E-16	1.59E-15	0.00E+00	7.14151	-9.16958	3.82838	0.142631	16.7993	-4.5273	3.78796	12.7459	-2.32878	-5.24442	2.32867	-1.62E+01	7.02815	12.0156	-31.1452	-4.01688	-15.4278	-8.52691	1.27E-14	3.24E-14	6.36E-15
-0.061	103.989	-0.062	0.55861	2.45995	162.084	1.02237	-1.39407	-16.9787	-0.1376	13.2118	-2.28238	2.18117	-9.34545	-17.0551	4.62E-02	5.34E-04	6.63E-01	-0.319596	-2.75705	-0.705588	-0.676611	-5.50705	-1.44243	1.08412	18.4981	14.2273	3.98E-16	-1.59E-15	-3.18E-15	-7.734	-13.144	-6.95796	-0.138964	11.4784	-11.1466	2.75232	11.7993	5.26426	3.98E-16	-1.59E-15	-3.18E-15	7.11368	-9.1831	3.82626	0.159708	16.9109	-4.53124	3.83621	12.758	-2.33631	-5.23E+00	2.31E+00	-1.62E+01	7.00453	11.9984	-31.1204	-4.02052	-15.4273	-8.58212	1.51E-14	3.24E-14	3.18E-15
-0.077	103.989	-0.094	0.556757	2.42676	162.055	1.02223	-1.41092	-16.971	-0.131406	13.187	-2.25423	2.18133	-9.34596	-17.0924	4.62E-02	5.34E-04	6.63E-01	-0.318897	-2.7623	-0.704231	-0.673803	-5.51759	-1.43787	1.08703	18.476	14.182	-1.77E-31	-3.18E-15	-3.18E-15	-7.77833	-13.2454	-6.92624	-0.128413	11.5182	-11.0788	2.76442	11.805	5.27258	-1.77E-31	-3.18E-15	-3.18E-15	7.0639	-9.16017	3.80563	0.175359	16.9338	-4.53265	3.81504	12.739	-2.31052	-5.21E+00	2.30E+00	-1.61E+01	6.96975	11.9752	-31.0898	-4.01764	-15.4316	-8.59957	1.43E-14	3.16E-14	3.18E-15
-0.088	103.989	-0.104	0.557407	2.39383	162.024	1.00818	-1.41812	-16.9511	-0.117465	13.1718	-2.23651	2.18904	-9.35296	-16.955	4.62E-02	5.34E-04	6.63E-01	-0.317078	-2.76724	-0.702972	-0.671929	-5.52752	-1.43565	1.08965	18.4421	14.1345	3.98E-16	1.59E-15	3.18E-15	-7.77451	-13.3142	-6.87405	-0.129499	11.5067	-11.0508	2.7552	11.8212	5.2816	3.98E-16	1.59E-15	3.18E-15	7.00881	-9.12255	3.7857	0.178301	16.8769	-4.53167	3.75766	12.7167	-2.28688	-5.18E+00	2.29E+00	-1.61E+01	6.9376	11.9545	-31.0745	-4.0244	-15.4392	-8.68406	1.51E-14	3.34E-14	9.54E-15
-0.106	103.988	-0.133	0.558293	2.36971	161.998	1.01102	-1.44212	-16.9392	-0.1158	13.1682	-2.21881	2.19457	-9.34898	-17.0205	4.62E-02	5.34E-04	6.63E-01	-0.314542	-2.77051	-0.701819	-0.669038	-5.53406	-1.43395	1.09312	18.4069	14.1009	-7.95E-16	1.59E-15	0.00E+00	-7.73018	-13.3184	-6.81224	-0.134629	11.427	-11.0425	2.7267	11.8319	5.28481	-7.95E-16	1.59E-15	0.00E+00	6.95989	-9.11129	3.77427	0.169799	16.8119	-4.52999	3.69855	12.7075	-2.27489	-5.16E+00	2.28E+00	-16.0612	6.9065	11.9374	-31.0544	-4.02166	-15.4581	-8.67855	1.51E-14	3.08E-14	6.36E-15
-0.109	103.987	-0.133	0.563499	2.33685	161.973	1.01194	-1.45506	-16.9293	-0.113309	13.1602	-2.20292	2.20334	-9.35438	-16.8815	4.62E-02	5.34E-04	6.63E-01	-0.31171	-2.77629	-0.700784	-0.663731	-5.54542	-1.43272	1.09161	18.383	14.0817	0.00E+00	6.36E-15	0.00E+00	-7.67759	-13.289	-6.75982	-0.126464	11.3352	-11.0411	2.72961	11.8304	5.291	0.00E+00	6.36E-15	0.00E+00	6.91146	-9.14625	3.76722	0.156228	16.7812	-4.52857	3.66634	12.7139	-2.28678	-5.12E+00	2.26E+00	-1.60E+01	6.87653	11.9199	-31.0327	-4.02786	-15.4681	-8.71348	1.43E-14	3.00E-14	9.54E-15
-0.118	103.986	-0.153	0.569504	2.30629	161.961	1.02716	-1.4877	-16.9175	-0.110934	13.1594	-2.20325	2.20199	-9.35109	-16.9158	4.62E-02	5.34E-04	6.63E-01	-0.308934	-2.78112	-0.699874	-0.656759	-5.55535	-1.43189	1.08863	18.3694	14.0704	-3.53E-31	-3.18E-15	-6.36E-15	-7.62349	-13.2593	-6.73542	-0.108636	11.2752	-11.0283	2.77416	11.8299	5.30012	-3.53E-31	-3.18E-15	-6.36E-15	6.85842	-9.21501	3.7538	0.141472	16.7656	-4.52689	3.65803	12.7242	-2.30162	-5.09E+00	2.24E+00	-1.59E+01	6.85702	11.9011	-31.0537	-4.03815	-15.4716	-8.76363	1.51E-14	3.18E-14	9.54E-15
-0.12	103.985	-0.155	0.578707	2.28306	161.949	1.03555	-1.50529	-16.8928	-0.109855	13.169	-2.20331	2.21657	-9.34908	-16.927	4.62E-02	5.34E-04	0.662642	-0.306579	-2.78239	-0.699097	-0.649442	-5.56366	-1.43141	1.09535	18.3705	14.0491	-3.98E-16	-1.59E-15	6.36E-15	-7.55905	-13.2531	-6.72475	-0.0964254	11.2449	-11.0238	2.8201	11.8382	5.30715	-3.98E-16	-1.59E-15	6.36E-15	6.79589	-9.27089	3.72446	0.130335	16.7228	-4.52255	3.64415	12.7215	-2.30833	-5.07E+00	2.22E+00	-1.59E+01	6.84775	11.8916	-31.0731	-4.0531	-15.4741	-8.81886	1.27E-14	3.56E-14	6.36E-15
-0.122	103.982	-0.157	0.588469	2.2772	161.947	1.04771	-1.51506	-16.8801	-0.109852	13.1799	-2.20334	2.21928	-9.35058	-16.8775	4.62E-02	5.34E-04	6.63E-01	-0.304983	-2.78196	-0.698462	-0.647277	-5.56363	-1.43119	1.10791	18.3765	14.0202	-1.19E-15	1.59E-15	0.00E+00	-7.48831	-13.2566	-6.73047	-0.0780376	11.205	-11.0233	2.84216	11.8552	5.30516	-1.19E-15	1.59E-15	0.00E+00	6.72938	-9.29864	3.68198	0.128131	16.6843	-4.52174	3.62973	12.7089	-2.31242	-5.06E+00	2.22E+00	-1.58E+01	6.84155	11.8881	-31.0717	-4.06162	-15.487	-8.77352	1.59E-14	3.26E-14	3.18E-15
-0.117	103.979	-0.148	0.599018	2.27897	161.952	1.05253	-1.50793	-16.8788	-0.110762	13.1877	-2.20252	2.21749	-9.35584	-16.7699	4.62E-02	5.34E-04	6.63E-01	-0.303876	-2.78058	-0.69798	-0.645328	-5.55902	-1.43119	1.11756	18.3851	13.9992	-3.98E-16	0.00E+00	-6.36E-15	-7.41883	-13.2587	-6.73424	-0.0521718	11.1401	-11.0367	2.86228	11.8775	5.30836	-3.98E-16	0.00E+00	-6.36E-15	6.6471	-9.30149	3.65109	0.149883	16.6459	-4.53043	3.63408	12.7127	-2.31932	-5.04737	2.22347	-1.59E+01	6.84106	11.8942	-31.043	-4.07196	-15.4957	-8.76584	1.43E-14	2.98E-14	1.27E-14
-0.115	103.975	-0.149	0.611482	2.28682	161.967	1.06299	-1.50098	-16.887	-0.112176	13.1944	-2.2001	2.21437	-9.35735	-16.7673	4.62E-02	5.34E-04	6.63E-01	-0.302768	-2.77903	-0.697659	-0.644335	-5.55125	-1.43135	1.11839	18.3949	13.9923	0.00E+00	0.00E+00	0.00E+00	-7.34944	-13.232	-6.75073	-0.0259436	11.0606	-11.057	2.90084	11.8817	5.31844	0.00E+00	0.00E+00	0.00E+00	6.55889	-9.29619	3.63156	0.181522	16.5889	-4.54308	3.64519	12.725	-2.33008	-5.04E+00	2.23287	-1.59E+01	6.8429	11.9019	-31.0187	-4.07414	-15.5081	-8.71348	1.51E-14	3.20E-14	9.54E-15
-0.11	103.973	-0.149	0.626818	2.29963	161.982	1.07428	-1.48422	-16.8979	-0.114197	13.1966	-2.19391	2.21658	-9.36203	-16.7726	4.62E-02	5.34E-04	6.63E-01	-0.301155	-2.77682	-0.697509	-0.644041	-5.54685	-1.43164	1.10703	18.4044	13.9977	-7.95E-16	-3.18E-15	-6.36E-15	-7.27129	-13.1806	-6.76462	-0.0251499	10.9936	-11.0805	2.95331	11.883	5.31179	-7.95E-16	-3.18E-15	-6.36E-15	6.44984	-9.28646	3.61962	0.218453	16.517	-4.55785	3.65232	12.7289	-2.3428	-5.03E+00	2.25E+00	-1.59E+01	6.84597	11.9108	-30.9893	-4.08203	-15.5095	-8.74273	1.35E-14	3.12E-14	9.54E-15
-0.105	103.972	-0.147	0.64118	2.31386	161.992	1.09929	-1.47314	-16.9168	-0.116526	13.1981	-2.18242	2.21287	-9.36963	-16.9202	4.62E-02	5.34E-04	6.63E-01	-0.298433	-2.77309	-0.697538	-0.643964	-5.5397	-1.43198	1.08857	18.4189	14.0068	7.95E-16	0.00E+00	0.00E+00	-7.19448	-13.1159	-6.77858	-0.0192181	10.9268	-11.1227	2.97239	11.908	5.295	7.95E-16	0.00E+00	0.00E+00	6.35268	-9.27668	3.6091	0.239678	16.45	-4.5664	3.65628	12.7164	-2.36077	-5.02E+00	2.27E+00	-15.9662	6.84711	11.9192	-30.949	-4.0891	-15.5072	-8.7806	1.27E-14	3.14E-14	9.54E-15
-0.093	103.971	-0.142	0.650107	2.32287	161.999	1.11426	-1.45843	-16.9285	-0.116626	13.1994	-2.17438	2.21377	-9.37675	-16.9812	4.62E-02	5.34E-04	6.63E-01	-0.296452	-2.7699	-0.697756	-0.64386	-5.53304	-1.43231	1.07488	18.4312	14.0149	-3.98E-16	1.59E-15	6.36E-15	-7.12292	-13.0696	-6.80185	-0.00387927	10.8664	-11.1677	2.99924	11.927	5.29104	-3.98E-16	1.59E-15	6.36E-15	6.25995	-9.2693	3.58355	0.258938	16.4037	-4.57413	3.65552	12.7094	-2.36976	-5.02E+00	2.28E+00	-16.003	6.84434	11.9272	-30.9133	-4.06864	-15.5122	-8.71639	1.27E-14	3.24E-14	3.18E-15
